<?xml version="1.0" encoding="UTF-8"?>
<svg width="178" height="218" viewBox="0 0 100 100" xmlns="http://www.w3.org/2000/svg" preserveAspectRatio="none">
  <polygon points="74.72,12.84 58.43,7.34 51.12,6.88 38.20,9.17 30.34,12.84 26.40,16.51 8.99,38.53 5.62,45.87 1.69,64.68 0.00,66.06 0.00,77.98 5.06,79.82 0.00,81.19 0.00,99.54 99.44,99.54 99.44,69.27 94.38,59.17 91.01,34.40 83.15,21.10" 
           fill="none" 
           stroke="red" 
           stroke-width="0.5"
           vector-effect="non-scaling-stroke"/>
  <circle cx="74.72" cy="12.84" r="1.5" fill="white" stroke="black" stroke-width="0.3"/>
  <circle cx="58.43" cy="7.34" r="1.5" fill="white" stroke="black" stroke-width="0.3"/>
  <circle cx="51.12" cy="6.88" r="1.5" fill="white" stroke="black" stroke-width="0.3"/>
  <circle cx="38.20" cy="9.17" r="1.5" fill="white" stroke="black" stroke-width="0.3"/>
  <circle cx="30.34" cy="12.84" r="1.5" fill="white" stroke="black" stroke-width="0.3"/>
  <circle cx="26.40" cy="16.51" r="1.5" fill="white" stroke="black" stroke-width="0.3"/>
  <circle cx="8.99" cy="38.53" r="1.5" fill="white" stroke="black" stroke-width="0.3"/>
  <circle cx="5.62" cy="45.87" r="1.5" fill="white" stroke="black" stroke-width="0.3"/>
  <circle cx="1.69" cy="64.68" r="1.5" fill="white" stroke="black" stroke-width="0.3"/>
  <circle cx="0.00" cy="66.06" r="1.5" fill="white" stroke="black" stroke-width="0.3"/>
  <circle cx="0.00" cy="77.98" r="1.5" fill="white" stroke="black" stroke-width="0.3"/>
  <circle cx="5.06" cy="79.82" r="1.5" fill="white" stroke="black" stroke-width="0.3"/>
  <circle cx="0.00" cy="81.19" r="1.5" fill="white" stroke="black" stroke-width="0.3"/>
  <circle cx="0.00" cy="99.54" r="1.5" fill="white" stroke="black" stroke-width="0.3"/>
  <circle cx="99.44" cy="99.54" r="1.5" fill="white" stroke="black" stroke-width="0.3"/>
  <circle cx="99.44" cy="69.27" r="1.5" fill="white" stroke="black" stroke-width="0.3"/>
  <circle cx="94.38" cy="59.17" r="1.5" fill="white" stroke="black" stroke-width="0.3"/>
  <circle cx="91.01" cy="34.40" r="1.5" fill="white" stroke="black" stroke-width="0.3"/>
  <circle cx="83.15" cy="21.10" r="1.5" fill="white" stroke="black" stroke-width="0.3"/>
</svg>