<?xml version="1.0" encoding="UTF-8"?>
<svg width="178" height="218" viewBox="0 0 100 100" xmlns="http://www.w3.org/2000/svg" preserveAspectRatio="none">
  <polygon points="32.58,14.68 61.80,7.80 86.52,22.94 89.89,50.46 80.34,65.14 99.44,99.54 19.66,99.54 37.08,80.28 19.10,99.54 37.64,79.36 17.98,99.54 37.64,78.90 17.42,99.54 38.20,77.98 15.17,99.54 37.64,77.52 14.04,99.54 37.64,77.06 12.92,99.54 37.64,76.61 10.11,99.54 37.08,76.15 10.11,99.08 37.08,75.69 22.47,29.36" 
           fill="none" 
           stroke="red" 
           stroke-width="0.5"
           vector-effect="non-scaling-stroke"/>
  <circle cx="32.58" cy="14.68" r="1.5" fill="white" stroke="black" stroke-width="0.3"/>
  <circle cx="61.80" cy="7.80" r="1.5" fill="white" stroke="black" stroke-width="0.3"/>
  <circle cx="86.52" cy="22.94" r="1.5" fill="white" stroke="black" stroke-width="0.3"/>
  <circle cx="89.89" cy="50.46" r="1.5" fill="white" stroke="black" stroke-width="0.3"/>
  <circle cx="80.34" cy="65.14" r="1.5" fill="white" stroke="black" stroke-width="0.3"/>
  <circle cx="99.44" cy="99.54" r="1.5" fill="white" stroke="black" stroke-width="0.3"/>
  <circle cx="19.66" cy="99.54" r="1.5" fill="white" stroke="black" stroke-width="0.3"/>
  <circle cx="37.08" cy="80.28" r="1.5" fill="white" stroke="black" stroke-width="0.3"/>
  <circle cx="19.10" cy="99.54" r="1.5" fill="white" stroke="black" stroke-width="0.3"/>
  <circle cx="37.64" cy="79.36" r="1.5" fill="white" stroke="black" stroke-width="0.3"/>
  <circle cx="17.98" cy="99.54" r="1.5" fill="white" stroke="black" stroke-width="0.3"/>
  <circle cx="37.64" cy="78.90" r="1.5" fill="white" stroke="black" stroke-width="0.3"/>
  <circle cx="17.42" cy="99.54" r="1.5" fill="white" stroke="black" stroke-width="0.3"/>
  <circle cx="38.20" cy="77.98" r="1.5" fill="white" stroke="black" stroke-width="0.3"/>
  <circle cx="15.17" cy="99.54" r="1.5" fill="white" stroke="black" stroke-width="0.3"/>
  <circle cx="37.64" cy="77.52" r="1.5" fill="white" stroke="black" stroke-width="0.3"/>
  <circle cx="14.04" cy="99.54" r="1.5" fill="white" stroke="black" stroke-width="0.3"/>
  <circle cx="37.64" cy="77.06" r="1.5" fill="white" stroke="black" stroke-width="0.3"/>
  <circle cx="12.92" cy="99.54" r="1.5" fill="white" stroke="black" stroke-width="0.3"/>
  <circle cx="37.64" cy="76.61" r="1.5" fill="white" stroke="black" stroke-width="0.3"/>
  <circle cx="10.11" cy="99.54" r="1.5" fill="white" stroke="black" stroke-width="0.3"/>
  <circle cx="37.08" cy="76.15" r="1.5" fill="white" stroke="black" stroke-width="0.3"/>
  <circle cx="10.11" cy="99.08" r="1.5" fill="white" stroke="black" stroke-width="0.3"/>
  <circle cx="37.08" cy="75.69" r="1.5" fill="white" stroke="black" stroke-width="0.3"/>
  <circle cx="22.47" cy="29.36" r="1.5" fill="white" stroke="black" stroke-width="0.3"/>
</svg>