<?xml version="1.0" encoding="UTF-8"?>
<svg width="178" height="218" viewBox="0 0 100 100" xmlns="http://www.w3.org/2000/svg" preserveAspectRatio="none">
  <polygon points="35.39,11.47 46.07,8.26 58.99,8.26 75.28,14.68 83.71,23.85 91.57,38.99 98.31,75.69 96.63,86.24 99.44,93.12 97.19,99.54 33.71,99.54 35.39,94.50 33.15,99.54 0.00,98.62 0.00,85.32 4.49,82.57 0.00,84.86 6.18,81.19 0.00,84.40 8.43,78.44 0.56,74.31 7.87,44.50 22.47,22.94" 
           fill="none" 
           stroke="red" 
           stroke-width="0.5"
           vector-effect="non-scaling-stroke"/>
  <circle cx="35.39" cy="11.47" r="1.5" fill="white" stroke="black" stroke-width="0.3"/>
  <circle cx="46.07" cy="8.26" r="1.5" fill="white" stroke="black" stroke-width="0.3"/>
  <circle cx="58.99" cy="8.26" r="1.5" fill="white" stroke="black" stroke-width="0.3"/>
  <circle cx="75.28" cy="14.68" r="1.5" fill="white" stroke="black" stroke-width="0.3"/>
  <circle cx="83.71" cy="23.85" r="1.5" fill="white" stroke="black" stroke-width="0.3"/>
  <circle cx="91.57" cy="38.99" r="1.5" fill="white" stroke="black" stroke-width="0.3"/>
  <circle cx="98.31" cy="75.69" r="1.5" fill="white" stroke="black" stroke-width="0.3"/>
  <circle cx="96.63" cy="86.24" r="1.5" fill="white" stroke="black" stroke-width="0.3"/>
  <circle cx="99.44" cy="93.12" r="1.5" fill="white" stroke="black" stroke-width="0.3"/>
  <circle cx="97.19" cy="99.54" r="1.5" fill="white" stroke="black" stroke-width="0.3"/>
  <circle cx="33.71" cy="99.54" r="1.5" fill="white" stroke="black" stroke-width="0.3"/>
  <circle cx="35.39" cy="94.50" r="1.5" fill="white" stroke="black" stroke-width="0.3"/>
  <circle cx="33.15" cy="99.54" r="1.5" fill="white" stroke="black" stroke-width="0.3"/>
  <circle cx="0.00" cy="98.62" r="1.5" fill="white" stroke="black" stroke-width="0.3"/>
  <circle cx="0.00" cy="85.32" r="1.5" fill="white" stroke="black" stroke-width="0.3"/>
  <circle cx="4.49" cy="82.57" r="1.5" fill="white" stroke="black" stroke-width="0.3"/>
  <circle cx="0.00" cy="84.86" r="1.5" fill="white" stroke="black" stroke-width="0.3"/>
  <circle cx="6.18" cy="81.19" r="1.5" fill="white" stroke="black" stroke-width="0.3"/>
  <circle cx="0.00" cy="84.40" r="1.5" fill="white" stroke="black" stroke-width="0.3"/>
  <circle cx="8.43" cy="78.44" r="1.5" fill="white" stroke="black" stroke-width="0.3"/>
  <circle cx="0.56" cy="74.31" r="1.5" fill="white" stroke="black" stroke-width="0.3"/>
  <circle cx="7.87" cy="44.50" r="1.5" fill="white" stroke="black" stroke-width="0.3"/>
  <circle cx="22.47" cy="22.94" r="1.5" fill="white" stroke="black" stroke-width="0.3"/>
</svg>