<?xml version="1.0" encoding="UTF-8"?>
<svg width="178" height="218" viewBox="0 0 100 100" xmlns="http://www.w3.org/2000/svg" preserveAspectRatio="none">
  <polygon points="0.00,99.54 0.00,57.80 6.18,50.92 5.06,40.83 11.24,29.36 26.97,15.60 39.89,9.17 62.92,11.01 82.58,22.02 87.64,30.28 88.76,41.74 92.70,45.41 91.57,52.75 98.88,63.76 96.63,72.02 84.83,83.94 89.89,88.07 85.39,88.99 93.26,89.45 85.39,89.91 85.96,96.79 88.76,99.54" 
           fill="none" 
           stroke="red" 
           stroke-width="0.5"
           vector-effect="non-scaling-stroke"/>
  <circle cx="0.00" cy="99.54" r="1.5" fill="white" stroke="black" stroke-width="0.3"/>
  <circle cx="0.00" cy="57.80" r="1.5" fill="white" stroke="black" stroke-width="0.3"/>
  <circle cx="6.18" cy="50.92" r="1.5" fill="white" stroke="black" stroke-width="0.3"/>
  <circle cx="5.06" cy="40.83" r="1.5" fill="white" stroke="black" stroke-width="0.3"/>
  <circle cx="11.24" cy="29.36" r="1.5" fill="white" stroke="black" stroke-width="0.3"/>
  <circle cx="26.97" cy="15.60" r="1.5" fill="white" stroke="black" stroke-width="0.3"/>
  <circle cx="39.89" cy="9.17" r="1.5" fill="white" stroke="black" stroke-width="0.3"/>
  <circle cx="62.92" cy="11.01" r="1.5" fill="white" stroke="black" stroke-width="0.3"/>
  <circle cx="82.58" cy="22.02" r="1.5" fill="white" stroke="black" stroke-width="0.3"/>
  <circle cx="87.64" cy="30.28" r="1.5" fill="white" stroke="black" stroke-width="0.3"/>
  <circle cx="88.76" cy="41.74" r="1.5" fill="white" stroke="black" stroke-width="0.3"/>
  <circle cx="92.70" cy="45.41" r="1.5" fill="white" stroke="black" stroke-width="0.3"/>
  <circle cx="91.57" cy="52.75" r="1.5" fill="white" stroke="black" stroke-width="0.3"/>
  <circle cx="98.88" cy="63.76" r="1.5" fill="white" stroke="black" stroke-width="0.3"/>
  <circle cx="96.63" cy="72.02" r="1.5" fill="white" stroke="black" stroke-width="0.3"/>
  <circle cx="84.83" cy="83.94" r="1.5" fill="white" stroke="black" stroke-width="0.3"/>
  <circle cx="89.89" cy="88.07" r="1.5" fill="white" stroke="black" stroke-width="0.3"/>
  <circle cx="85.39" cy="88.99" r="1.5" fill="white" stroke="black" stroke-width="0.3"/>
  <circle cx="93.26" cy="89.45" r="1.5" fill="white" stroke="black" stroke-width="0.3"/>
  <circle cx="85.39" cy="89.91" r="1.5" fill="white" stroke="black" stroke-width="0.3"/>
  <circle cx="85.96" cy="96.79" r="1.5" fill="white" stroke="black" stroke-width="0.3"/>
  <circle cx="88.76" cy="99.54" r="1.5" fill="white" stroke="black" stroke-width="0.3"/>
</svg>